HIERARCHY
ROOT Hips
{
	OFFSET 0.000000 0.000000 0.000000 
	CHANNELS 6 Xposition Yposition Zposition Yrotation Xrotation Zrotation
	JOINT Spine
	{
		OFFSET 0.000000 0.072080 0.012321 
		CHANNELS 3 Xrotation Yrotation Zrotation
		JOINT Spine1
		{
			OFFSET 0.000000 0.126984 -0.001294 
			CHANNELS 3 Xrotation Yrotation Zrotation
			JOINT Spine2
			{
				OFFSET 0.000000 0.106559 -0.010096 
				CHANNELS 3 Xrotation Yrotation Zrotation
				JOINT Neck
				{
					OFFSET 0.000000 0.108417 -0.034017 
					CHANNELS 3 Xrotation Yrotation Zrotation
					JOINT Neck1
					{
						OFFSET 0.000000 0.033906 0.007241 
						CHANNELS 3 Xrotation Yrotation Zrotation
						JOINT Head
						{
							OFFSET 0.000000 0.031458 0.006707 
							CHANNELS 3 Xrotation Yrotation Zrotation
							End Site
							{
								OFFSET 0.000000 0.179920 0.000962 
							}
						}
					}
				}
				JOINT LeftShoulder
				{
					OFFSET 0.048002 0.079586 -0.029634 
					CHANNELS 3 Zrotation Xrotation Yrotation
					JOINT LeftArm
					{
						OFFSET 0.096243 -0.008695 -0.014012 
						CHANNELS 3 Zrotation Xrotation Yrotation
						JOINT LeftForeArm
						{
							OFFSET 0.216305 0.000000 0.000000 
							CHANNELS 3 Xrotation Zrotation Yrotation
							JOINT LeftHand
							{
								OFFSET 0.217764 0.000000 0.000000 
								CHANNELS 3 Zrotation Yrotation Xrotation
								JOINT LeftHandThumb1
								{
									OFFSET 0.018582 -0.007835 0.020476 
									CHANNELS 3 Zrotation Xrotation Yrotation
									JOINT LeftHandThumb2
									{
										OFFSET 0.026269 -0.007835 0.022186 
										CHANNELS 3 Zrotation Xrotation Yrotation
										JOINT LeftHandThumb3
										{
											OFFSET 0.035170 -0.010504 0.017018 
											CHANNELS 3 Zrotation Xrotation Yrotation
											End Site
											{
												OFFSET 0.020312 -0.007813 0.007813 
											}
										}
									}
								}
								JOINT LeftHandMiddle1
								{
									OFFSET 0.081749 0.004803 0.003358 
									CHANNELS 3 Zrotation Xrotation Yrotation
									JOINT LeftHandMiddle2
									{
										OFFSET 0.045251 0.000000 0.000000 
										CHANNELS 3 Zrotation Xrotation Yrotation
										JOINT LeftHandMiddle3
										{
											OFFSET 0.029009 0.000000 0.000000 
											CHANNELS 3 Zrotation Xrotation Yrotation
											End Site
											{
												OFFSET 0.017969 0.000000 0.000000 
											}
										}
									}
								}
								JOINT LeftHandIndex1
								{
									OFFSET 0.081207 0.004803 0.021137 
									CHANNELS 3 Zrotation Xrotation Yrotation
									JOINT LeftHandIndex2
									{
										OFFSET 0.043354 0.000000 0.000000 
										CHANNELS 3 Zrotation Xrotation Yrotation
										JOINT LeftHandIndex3
										{
											OFFSET 0.026493 0.000000 0.000000 
											CHANNELS 3 Zrotation Xrotation Yrotation
											End Site
											{
												OFFSET 0.019531 0.000000 0.000000 
											}
										}
									}
								}
								JOINT LeftHandRing1
								{
									OFFSET 0.080666 0.002509 -0.014652 
									CHANNELS 3 Zrotation Xrotation Yrotation
									JOINT LeftHandRing2
									{
										OFFSET 0.042541 0.000000 0.000000 
										CHANNELS 3 Zrotation Xrotation Yrotation
										JOINT LeftHandRing3
										{
											OFFSET 0.029009 0.000000 0.000000 
											CHANNELS 3 Zrotation Xrotation Yrotation
											End Site
											{
												OFFSET 0.015625 0.000000 0.000000 
											}
										}
									}
								}
								JOINT LeftHandPinky1
								{
									OFFSET 0.078227 -0.000612 -0.030993 
									CHANNELS 3 Zrotation Xrotation Yrotation
									JOINT LeftHandPinky2
									{
										OFFSET 0.028721 0.000000 0.000000 
										CHANNELS 3 Zrotation Xrotation Yrotation
										JOINT LeftHandPinky3
										{
											OFFSET 0.021963 0.000000 0.000000 
											CHANNELS 3 Zrotation Xrotation Yrotation
											End Site
											{
												OFFSET 0.022656 0.000000 0.000000 
											}
										}
									}
								}
							}
						}
					}
				}
				JOINT RightShoulder
				{
					OFFSET -0.047970 0.079586 -0.029634 
					CHANNELS 3 Zrotation Xrotation Yrotation
					JOINT RightArm
					{
						OFFSET -0.096274 -0.008695 -0.014012 
						CHANNELS 3 Zrotation Xrotation Yrotation
						JOINT RightForeArm
						{
							OFFSET -0.216305 0.000000 0.000000 
							CHANNELS 3 Xrotation Zrotation Yrotation
							JOINT RightHand
							{
								OFFSET -0.217764 0.000000 0.000000 
								CHANNELS 3 Zrotation Yrotation Xrotation
								JOINT RightHandThumb1
								{
									OFFSET -0.019670 -0.007318 0.019638 
									CHANNELS 3 Zrotation Xrotation Yrotation
									JOINT RightHandThumb2
									{
										OFFSET -0.025498 -0.008492 0.023179 
										CHANNELS 3 Zrotation Xrotation Yrotation
										JOINT RightHandThumb3
										{
											OFFSET -0.034504 -0.010705 0.016680 
											CHANNELS 3 Zrotation Xrotation Yrotation
											End Site
											{
												OFFSET -0.020312 -0.007813 0.007813 
											}
										}
									}
								}
								JOINT RightHandIndex1
								{
									OFFSET -0.081770 0.003825 0.021187 
									CHANNELS 3 Zrotation Xrotation Yrotation
									JOINT RightHandIndex2
									{
										OFFSET -0.042006 0.000000 0.000000 
										CHANNELS 3 Zrotation Xrotation Yrotation
										JOINT RightHandIndex3
										{
											OFFSET -0.026449 0.000000 0.000000 
											CHANNELS 3 Zrotation Xrotation Yrotation
											End Site
											{
												OFFSET -0.020312 0.000000 0.000000 
											}
										}
									}
								}
								JOINT RightHandMiddle1
								{
									OFFSET -0.084059 0.003825 0.003342 
									CHANNELS 3 Zrotation Xrotation Yrotation
									JOINT RightHandMiddle2
									{
										OFFSET -0.043881 0.000000 0.000000 
										CHANNELS 3 Zrotation Xrotation Yrotation
										JOINT RightHandMiddle3
										{
											OFFSET -0.029191 0.000000 0.000000 
											CHANNELS 3 Zrotation Xrotation Yrotation
											End Site
											{
												OFFSET -0.017969 0.000000 0.000000 
											}
										}
									}
								}
								JOINT RightHandRing1
								{
									OFFSET -0.081798 0.003030 -0.015127 
									CHANNELS 3 Zrotation Xrotation Yrotation
									JOINT RightHandRing2
									{
										OFFSET -0.042198 0.000000 0.000000 
										CHANNELS 3 Zrotation Xrotation Yrotation
										JOINT RightHandRing3
										{
											OFFSET -0.026497 0.000000 0.000000 
											CHANNELS 3 Zrotation Xrotation Yrotation
											End Site
											{
												OFFSET -0.017188 0.000000 0.000000 
											}
										}
									}
								}
								JOINT RightHandPinky1
								{
									OFFSET -0.077902 -0.000930 -0.030891 
									CHANNELS 3 Zrotation Xrotation Yrotation
									JOINT RightHandPinky2
									{
										OFFSET -0.028538 0.000000 0.000000 
										CHANNELS 3 Zrotation Xrotation Yrotation
										JOINT RightHandPinky3
										{
											OFFSET -0.021734 0.000000 0.000000 
											CHANNELS 3 Zrotation Xrotation Yrotation
											End Site
											{
												OFFSET -0.022656 0.000000 0.000000 
											}
										}
									}
								}
							}
						}
					}
				}
			}
		}
	}
	JOINT LeftUpLeg
	{
		OFFSET 0.075264 -0.025573 0.000000 
		CHANNELS 3 Xrotation Yrotation Zrotation
		JOINT LeftLeg
		{
			OFFSET 0.000000 -0.326016 -0.013516 
			CHANNELS 3 Xrotation Yrotation Zrotation
			JOINT LeftFoot
			{
				OFFSET 0.000098 -0.306172 -0.006623 
				CHANNELS 3 Xrotation Yrotation Zrotation
				JOINT LeftToeBase
				{
					OFFSET -0.001432 -0.095259 0.064705 
					CHANNELS 3 Xrotation Yrotation Zrotation
					End Site
					{
						OFFSET 0.000000 0.000000 0.079438 
					}
				}
			}
		}
	}
	JOINT RightUpLeg
	{
		OFFSET -0.075264 -0.025573 0.000000 
		CHANNELS 3 Xrotation Yrotation Zrotation
		JOINT RightLeg
		{
			OFFSET 0.000000 -0.326016 -0.013516 
			CHANNELS 3 Xrotation Yrotation Zrotation
			JOINT RightFoot
			{
				OFFSET 0.000098 -0.306172 -0.006623 
				CHANNELS 3 Xrotation Yrotation Zrotation
				JOINT RightToeBase
				{
					OFFSET -0.001432 -0.095259 0.064705 
					CHANNELS 3 Xrotation Yrotation Zrotation
					End Site
					{
						OFFSET 0.000025 0.000000 0.079438 
					}
				}
			}
		}
	}
}
MOTION
Frames: 4
Frame Time: 0.033333
-0.000185 0.692091 0.003254 2.948000 5.440700 -2.839800 4.924200 1.329300 1.491800 9.857100 2.800200 1.722100 9.857100 2.800300 1.722100 -7.496600 -3.145000 -0.434800 -0.000000 0.000000 -0.000000 -14.101500 -7.360300 -5.253900 -9.108800 1.264500 -1.039500 -65.089500 -6.449200 26.276899 11.145000 1.477700 -103.913200 -3.979700 -17.122999 18.268700 -10.552100 4.432400 -2.391500 1.180200 -0.597100 1.093000 3.650800 -3.261600 -4.251000 -76.447701 10.137400 -11.698300 -77.810997 9.001600 -11.925100 0.000000 -0.000000 0.000000 -72.653900 11.165200 -12.027000 -84.052696 8.984600 -12.404500 0.000000 -0.000000 0.000000 -82.135696 2.907600 -9.399800 -81.041603 8.853000 -9.535800 0.000000 0.000000 -0.000000 -88.728897 -2.448700 -9.400000 -90.530502 12.253100 -7.502300 -0.000000 0.000000 -0.000000 9.480700 1.766400 5.843200 54.515800 -5.483800 -10.535500 4.694300 3.186300 89.181801 4.820100 3.339900 4.562500 11.991500 8.793900 -5.684200 -0.462500 -1.635600 3.530900 -3.141100 -3.030300 4.239200 69.891403 9.289500 2.815700 90.745003 7.875800 10.223800 0.000000 -0.000000 -0.000000 74.714798 7.421900 7.701700 84.481903 8.179500 9.776300 0.000000 0.000000 -0.000000 82.732300 3.152700 8.162000 86.900200 9.978600 9.776700 0.000000 -0.000000 0.000000 95.894096 0.432500 9.513200 95.839401 15.155100 8.984300 0.000000 -0.000000 -0.000000 -41.463100 5.910300 -1.175200 103.555801 14.045300 3.527500 -16.466900 -0.932700 5.004300 -0.898500 -2.887900 -6.627600 -20.927500 -5.545300 3.836300 52.012299 0.387000 -1.542800 -25.535900 -0.072600 0.267600 -10.243100 12.978200 -1.678500 
0.003351 0.677446 0.081830 1.321800 5.519100 -2.245000 5.051200 1.730900 1.245700 10.108400 3.379800 1.526000 10.108400 3.379800 1.526000 -7.107400 -3.680900 0.192100 -0.000000 0.000000 -0.000000 -14.069300 -6.469700 -5.765600 -9.515400 1.225600 -0.579000 -65.710098 -10.085200 28.987200 9.342900 1.847400 -98.681297 -1.652700 -18.560101 17.101900 -10.507500 4.775200 -1.832300 1.163900 -0.745400 0.557900 3.650800 -3.261600 -4.251000 -74.053802 9.650400 -11.263300 -75.731102 8.570200 -11.791900 0.000000 -0.000000 -0.000000 -69.942596 10.581800 -12.235200 -81.557701 8.446900 -12.208200 -0.000000 -0.000000 -0.000000 -80.189102 2.527000 -8.820900 -79.199699 8.547800 -9.510300 0.000000 -0.000000 0.000000 -86.651100 -2.772500 -8.687300 -88.568199 11.997800 -7.673700 -0.000000 0.000000 0.000000 10.591600 1.879400 6.159300 55.754700 -4.940400 -7.520200 5.305400 1.865700 87.748398 5.176800 3.359800 5.598000 11.811000 8.352200 -5.914600 -0.473100 -1.539300 3.215200 -3.141100 -3.030300 4.239200 67.374802 8.783700 2.993900 88.017998 7.391600 10.082200 0.000000 0.000000 -0.000000 72.333702 6.993900 7.630100 82.472099 7.837600 9.708300 0.000000 -0.000000 -0.000000 80.398201 2.856900 7.818700 85.036003 9.661800 9.779700 0.000000 -0.000000 0.000000 93.175697 0.039900 9.032000 93.720299 14.827400 9.202300 0.000000 0.000000 0.000000 -62.868500 11.789300 0.637400 92.309799 7.108600 8.901100 -6.849100 -0.690500 2.129000 0.881300 -4.294900 -5.210700 -17.313499 -4.056000 3.261900 53.815701 -3.536400 -1.453300 -31.203199 -1.128600 3.293600 -10.195900 12.447300 -1.450300 
0.008003 0.663448 0.157452 -1.573700 5.339600 -1.333600 5.551500 1.882300 0.729400 11.100800 3.868500 1.011200 11.100800 3.868500 1.011200 -7.988600 -3.615800 0.162000 -0.000000 0.000000 -0.000000 -15.488300 -5.237100 -5.848800 -11.181400 1.230800 -0.478600 -64.871597 -13.956500 31.759501 6.715900 1.750500 -96.211098 1.169200 -18.776800 16.018900 -10.470300 5.119400 -1.274100 1.145500 -0.893700 0.022800 3.650800 -3.261600 -4.251000 -71.662697 9.166600 -10.807900 -73.652397 8.143900 -11.643100 -0.000000 -0.000000 -0.000000 -67.235802 10.000900 -12.416200 -79.064201 7.918200 -11.988600 0.000000 -0.000000 -0.000000 -78.240303 2.154600 -8.231400 -77.359001 8.243500 -9.474900 -0.000000 -0.000000 -0.000000 -84.570503 -3.081000 -7.962600 -86.608498 11.736900 -7.835900 0.000000 -0.000000 -0.000000 11.003800 1.951900 6.347700 56.079300 -4.791500 -4.612700 4.808500 1.845400 88.043503 5.612800 3.813800 5.310300 11.628000 7.911400 -6.144200 -0.483100 -1.443000 2.899400 -3.141100 -3.030300 4.239200 64.861198 8.280700 3.151400 85.292702 6.914500 9.917800 0.000000 -0.000000 -0.000000 69.954102 6.569900 7.540800 80.463203 7.499200 9.628300 0.000000 0.000000 -0.000000 78.063499 2.573500 7.462500 83.173401 9.345000 9.772300 0.000000 -0.000000 -0.000000 90.454201 -0.327700 8.530300 91.605698 14.492100 9.407200 -0.000000 0.000000 -0.000000 -72.287003 13.186500 1.132700 72.413101 -5.203500 10.886300 1.809100 -2.417700 3.414400 -0.374000 -3.033000 -4.833300 -15.810100 -3.141400 1.323700 58.421902 -6.177700 -2.040200 -32.747799 -2.963400 8.086800 -12.426000 12.708600 -2.124600 
0.013759 0.639588 0.233831 -5.699100 5.125400 -1.149900 6.297400 1.937900 0.466900 12.599100 4.281500 0.537900 12.599100 4.281500 0.537900 -9.676200 -2.911800 -0.322200 -0.000000 0.000000 -0.000000 -17.714701 -3.457700 -5.484500 -11.913000 1.210200 -0.187500 -64.871002 -16.481501 32.505100 4.562200 2.203300 -95.492897 1.815200 -16.712601 16.001101 -10.440400 5.464800 -0.716600 1.125000 -1.042000 -0.512200 3.650800 -3.261600 -4.251000 -69.274597 8.684200 -10.332200 -71.574799 7.723300 -11.479000 0.000000 -0.000000 0.000000 -64.533203 9.423700 -12.570500 -76.571800 7.399400 -11.746400 -0.000000 0.000000 0.000000 -76.289299 1.790900 -7.631700 -75.519501 7.940500 -9.429600 -0.000000 0.000000 -0.000000 -82.487297 -3.373600 -7.226500 -84.651497 11.470700 -7.988700 -0.000000 -0.000000 -0.000000 10.983000 2.029500 6.755700 55.328201 -4.267300 -2.242200 3.727800 1.435900 88.711197 6.385100 3.878900 4.441800 11.442400 7.471200 -6.373300 -0.492300 -1.346800 2.583600 -3.141100 -3.030300 4.239200 62.349998 7.781400 3.288400 82.568703 6.445800 9.730900 0.000000 -0.000000 -0.000000 67.575302 6.153400 7.433900 78.455498 7.164000 9.536400 -0.000000 0.000000 -0.000000 75.728104 2.303000 7.093600 81.312500 9.028700 9.754400 -0.000000 0.000000 -0.000000 87.729599 -0.669000 8.009400 89.495697 14.149800 9.598400 -0.000000 0.000000 0.000000 -76.426697 4.368600 2.111900 61.684799 -12.356900 4.364400 -1.969600 -4.873300 13.625800 -8.467000 0.169800 -1.763100 -18.875299 -2.230800 -0.923200 71.170898 -5.260700 -2.999100 -32.116100 -5.273400 14.074200 -13.773700 12.141000 -2.674400 
